<svg xmlns="http://www.w3.org/2000/svg" width="512" height="512" viewBox="0 0 512 512">
<defs>
  <filter id="shadow" x="-50%" y="-50%" width="200%" height="200%">
    <feDropShadow dx="0" dy="8" stdDeviation="8" flood-opacity="0.28"/>
  </filter>
  <filter id="glow" x="-100%" y="-100%" width="300%" height="300%">
    <feGaussianBlur stdDeviation="10" result="b"/>
    <feMerge><feMergeNode in="b"/><feMergeNode in="SourceGraphic"/></feMerge>
  </filter>
</defs>

<g filter="url(#shadow)" transform="rotate(-12 256 256)">
  <path d="M94 288 L205 254 L188 327 Z" fill="#C72D16" stroke="#6B1208" stroke-width="8" stroke-linejoin="round"/>
  <path d="M111 221 L205 254 L188 327 Z" fill="#FF6B2C" stroke="#6B1208" stroke-width="8" stroke-linejoin="round"/>
  <rect x="190" y="262" width="190" height="30" rx="15" fill="#FF6B2C" stroke="#6B1208" stroke-width="8"/>
  <path d="M378 262 L458 277 L378 292 Z" fill="#FFD167" stroke="#6B1208" stroke-width="8" stroke-linejoin="round"/>
  <circle cx="278" cy="277" r="10" fill="#FFD167"/>
</g><g opacity=".95" filter="url(#glow)">
        <path d="M72 275 C42 248 52 221 82 211 C65 240 101 242 92 270 C117 250 135 269 122 296 C109 322 78 320 64 303 C47 283 56 270 72 275Z" fill="#FF7A2F"/>
        <path d="M82 287 C69 271 82 254 97 251 C91 267 112 269 104 287 C99 299 89 301 82 287Z" fill="#FFE36E"/>
        </g>
</svg>